<?xml version="1.0" standalone="no"?>
<!DOCTYPE svg PUBLIC "-//W3C//DTD SVG 1.1//EN"
  "http://www.w3.org/Graphics/SVG/1.1/DTD/svg11.dtd">

<svg width="1000px" height="1000px" viewBox="-25000 -25000 50000 50000"
     xmlns="http://www.w3.org/2000/svg" version="1.1">

  <title>Example quad01 - quadratic Bezier commands in path data</title>

  <rect x="-23469" y="-19540" width="45328" height="39314"
        fill="none" stroke="blue" stroke-width="15" />

<path d="M-3603, 4592 Q138,2497 3879,403 Q4751,-85 4384,844 Q1751,7518 -882,14193 Q-1249,15123 -1566,14175 Q-2546,11254 -3526,8334 Q-3843,7385 -2869,7612 Q1014,8514 4899,9416 Q5873,9642 4875,9705 Q582,9978 -3711,10251 Q-4708,10314 -3761,9994 Q2601,7842 8965,5690 Q9912,5369 8966,5695 Q1452,8282 -6061,10869 Q-7006,11194 -6024,11007 Q3905,9121 13835,7236 Q14817,7049 14007,6462 Q9375,3108 4744,-246 Q3934,-832 4721,-1449 Q7979,-4001 11238,-6553 Q12025,-7169 11316,-7875 Q8246,-10932 5177,-13990 Q4468,-14695 5117,-13934 Q12305,-5505 19493,2923 Q20141,3683 19142,3639 Q6679,3087 -5783,2536 Q-6782,2491 -5804,2279 Q-2771,1619 261,959 " 
 fill="none" stroke="red" stroke-width="30"  /> 
<g fill="black">
<circle cx="0" cy="0" r="200"/>
<circle cx="-3603" cy="4592" r="100"/>
<circle cx="3879" cy="403" r="100"/>
<circle cx="-882" cy="14193" r="100"/>
<circle cx="-3526" cy="8334" r="100"/>
<circle cx="4899" cy="9416" r="100"/>
<circle cx="-3711" cy="10251" r="100"/>
<circle cx="8965" cy="5690" r="100"/>
<circle cx="-6061" cy="10869" r="100"/>
<circle cx="13835" cy="7236" r="100"/>
<circle cx="4744" cy="-246" r="100"/>
<circle cx="11238" cy="-6553" r="100"/>
<circle cx="5177" cy="-13990" r="100"/>
<circle cx="19493" cy="2923" r="100"/>
<circle cx="-5783" cy="2536" r="100"/>
<circle cx="261" cy="959" r="100"/>
</g>
</svg>
